<svg xmlns="http://www.w3.org/2000/svg" width="50" height="50" viewBox="0 0 500 500">
  <metadata><?xpacket begin="﻿" id="W5M0MpCehiHzreSzNTczkc9d"?>
<x:xmpmeta xmlns:x="adobe:ns:meta/" x:xmptk="Adobe XMP Core 5.6-c145 79.163499, 2018/08/13-16:40:22        ">
   <rdf:RDF xmlns:rdf="http://www.w3.org/1999/02/22-rdf-syntax-ns#">
      <rdf:Description rdf:about=""
            xmlns:xmp="http://ns.adobe.com/xap/1.0/">
         <xmp:CreatorTool>Adobe Photoshop CC 2019 (Windows)</xmp:CreatorTool>
      </rdf:Description>
   </rdf:RDF>
</x:xmpmeta>
                                                                                                    
                                                                                                    
                                                                                                    
                                                                                                    
                                                                                                    
                                                                                                    
                                                                                                    
                                                                                                    
                                                                                                    
                                                                                                    
                                                                                                    
                                                                                                    
                                                                                                    
                                                                                                    
                                                                                                    
                                                                                                    
                                                                                                    
                                                                                                    
                                                                                                    
                                                                                                    
                           
<?xpacket end="w"?></metadata>
<defs>
    <style>
      .cls-1 {
        fill: #fff7f2;
        fill-rule: evenodd;
      }
    </style>
  </defs>
  <path class="cls-1" d="M237,17c9.959-.1,22.641-1.512,31,1,42.438,12.755,57.345,52.034,90,74V58c4.947-6.625,5.551-14.929,13-19,3.211-1.755,8.663-3.189,12-4,5.975-1.452,12.555,1.41,16,3,25.219,11.636,18,46.812,18,82,0,6.511-1.182,30.082,0,32,4.229,6.264,10.714,9.823,16,15l37,39c9.243,7,20.592,16.379,27,26,12.982,19.489-4.766,41.172-19,45l-17-1c-7.689-2.874-12.621-10.624-18-16-9.843-9.837-20.482-17.723-29-29l-36-34c-20.649-20.685-40.318-42.349-61-63l-23-21c-11.395-11.44-27.312-37.765-48-38-11.81,9.646-25.837,18.874-35,31-5.639,7.462-12.6,16.413-20,22-14.5,10.953-25.157,25.424-38,38-26.641,26.087-52.637,52.652-79,79L61,256c-10.807,10.711-23.692,30.314-46,17-4.43-2.644-9.261-4.884-12-9-2.636-3.961-5.5-18.267-3-26,4.4-13.588,35.24-37.2,46-48q36.942-37.078,74-74c11.723-11.714,21.63-24.9,35-35,18.014-13.609,29.729-35.462,48-49a87.843,87.843,0,0,1,20-11C227.579,19.283,233.308,19.592,237,17Zm58,466V396c0-12.151-2.373-29.8,1-40H204v1c2.943,4.736,1,27.307,1,35v91c-58.087.446-115.4,10.1-133-32-7.332-17.533-3-59.427-3-83V305c3.715-12.565,32.352-30.57,41-42,8.762-11.582,19.871-19.871,30-30s18.432-21.262,30-30c15.694-11.855,26.078-29.973,42-42,9.743-7.359,22.633-29.778,34-33,12.613-3.575,18.079,9.061,23,14,6.69,6.715,13.35,13.219,21,19l29,31q38.5,38.5,77,77c8.343,8.357,29.08,23.588,34,33,2.316,4.43,1,13.891,1,20v48c0,23.087,4.2,63.885-3,81C410.255,493.167,353.2,483.368,295,483Z"/>
</svg>
