<svg xmlns="http://www.w3.org/2000/svg" width="50" height="50" viewBox="0 0 500 500">
  <metadata><?xpacket begin="﻿" id="W5M0MpCehiHzreSzNTczkc9d"?>
<x:xmpmeta xmlns:x="adobe:ns:meta/" x:xmptk="Adobe XMP Core 5.6-c145 79.163499, 2018/08/13-16:40:22        ">
   <rdf:RDF xmlns:rdf="http://www.w3.org/1999/02/22-rdf-syntax-ns#">
      <rdf:Description rdf:about=""
            xmlns:xmp="http://ns.adobe.com/xap/1.0/">
         <xmp:CreatorTool>Adobe Photoshop CC 2019 (Windows)</xmp:CreatorTool>
      </rdf:Description>
   </rdf:RDF>
</x:xmpmeta>
                                                                                                    
                                                                                                    
                                                                                                    
                                                                                                    
                                                                                                    
                                                                                                    
                                                                                                    
                                                                                                    
                                                                                                    
                                                                                                    
                                                                                                    
                                                                                                    
                                                                                                    
                                                                                                    
                                                                                                    
                                                                                                    
                                                                                                    
                                                                                                    
                                                                                                    
                                                                                                    
                           
<?xpacket end="w"?></metadata>
<defs>
    <style>
      .cls-1 {
        fill: #fff7f2;
        fill-rule: evenodd;
      }
    </style>
  </defs>
  <path class="cls-1" d="M349,16h35c2.241,20.222,18.037,35.216,31,45,35.578,26.853,86.429,83.378,66,155-3.072,10.77-8.272,20.978-13,30-5.406,10.316-19.453,35.71-31,38-3.132-11.85-14.067-19.076-18-30,24.655-16.254,37.818-69.948,24-106-9.769-25.489-29.723-43.776-50-59-3.345-2.511-5.337-6.6-9-9V411c-4.758,7.425-5.269,19.388-10,27-13.474,21.678-36.451,36.4-64,44l-13,1c-48.635,10.9-91.523-22.086-106-50-4.91-9.467-12.255-27.426-8-45,10.548-43.564,41.213-61.417,85-72,21.36-5.163,53.629,4.986,65,11,3.15,1.666,14.907,9.1,16,8,1.183-2.942-.635-14.7,0-21,2.133-21.15-2.615-51.58,0-76,3.629-33.885-4.6-81.8,0-125C351.776,86.958,349.044,50.208,349,16ZM16,49H317V84H16V49Zm0,100H317v35H16V149Zm0,100H317v35H16V249ZM276,351c-5.491,3.228-13.843,1.73-20,4-16.252,5.992-32.842,19-38,36-4.461,14.7,4.326,26.258,10,34,16.825,22.956,66.339,32.311,96,14,25.593-15.8,33.809-47.166,11-70C322.536,356.523,301.025,350.676,276,351Z"/>
</svg>
