<svg width="82" height="100" fill="none" xmlns="http://www.w3.org/2000/svg"><path d="M12.234 9.875L21 34.625l8.719-24.75h9.234V44h-7.055v-9.328l.704-16.102L23.39 44h-4.828L9.374 18.594l.703 16.078V44H3.047V9.875h9.187zm47.602 31.547c-1.672 2.031-3.984 3.047-6.938 3.047-2.718 0-4.796-.782-6.234-2.344-1.422-1.563-2.148-3.852-2.18-6.867V18.64h6.774v16.382c0 2.641 1.203 3.961 3.61 3.961 2.296 0 3.874-.797 4.734-2.39V18.64h6.796V44h-6.375l-.187-2.578zM0 48.688h68.906v2.343H0v-2.343zM29.625 78.156l4.594-24.281h7.008L33.657 88h-7.079l-5.555-22.828L15.47 88H8.39L.82 53.875h7.007l4.617 24.234 5.625-24.234h5.953l5.602 24.281zM55.523 88.47c-3.718 0-6.75-1.14-9.093-3.422-2.328-2.281-3.492-5.32-3.492-9.117v-.657c0-2.546.492-4.82 1.476-6.82.984-2.016 2.375-3.562 4.172-4.64 1.812-1.094 3.875-1.641 6.187-1.641 3.47 0 6.196 1.094 8.18 3.281 2 2.188 3 5.29 3 9.305v2.765H49.805c.218 1.657.875 2.985 1.968 3.985 1.11 1 2.508 1.5 4.196 1.5 2.61 0 4.648-.945 6.117-2.836l3.328 3.726c-1.016 1.438-2.39 2.563-4.125 3.375-1.734.797-3.656 1.196-5.766 1.196zm-.773-20.813c-1.344 0-2.438.453-3.281 1.36-.828.906-1.36 2.203-1.594 3.89h9.422v-.539c-.031-1.5-.438-2.656-1.219-3.469-.781-.828-1.89-1.242-3.328-1.242zm15.422 17.016c0-1.078.36-1.953 1.078-2.625.734-.672 1.648-1.008 2.742-1.008 1.11 0 2.024.336 2.742 1.008.735.672 1.102 1.547 1.102 2.625 0 1.062-.36 1.93-1.078 2.601-.719.657-1.64.985-2.766.985-1.11 0-2.023-.328-2.742-.985-.719-.671-1.078-1.539-1.078-2.601zM0 92.688h81.164v2.343H0v-2.344z" fill="#000"/></svg>