<svg xmlns="http://www.w3.org/2000/svg" width="1000" height="1000" viewBox="0 0 1000 1000">
  <metadata><?xpacket begin="﻿" id="W5M0MpCehiHzreSzNTczkc9d"?>
<x:xmpmeta xmlns:x="adobe:ns:meta/" x:xmptk="Adobe XMP Core 5.6-c145 79.163499, 2018/08/13-16:40:22        ">
   <rdf:RDF xmlns:rdf="http://www.w3.org/1999/02/22-rdf-syntax-ns#">
      <rdf:Description rdf:about=""
            xmlns:xmp="http://ns.adobe.com/xap/1.0/">
         <xmp:CreatorTool>Adobe Photoshop CC 2019 (Windows)</xmp:CreatorTool>
      </rdf:Description>
   </rdf:RDF>
</x:xmpmeta>
                                                                                                    
                                                                                                    
                                                                                                    
                                                                                                    
                                                                                                    
                                                                                                    
                                                                                                    
                                                                                                    
                                                                                                    
                                                                                                    
                                                                                                    
                                                                                                    
                                                                                                    
                                                                                                    
                                                                                                    
                                                                                                    
                                                                                                    
                                                                                                    
                                                                                                    
                                                                                                    
                           
<?xpacket end="w"?></metadata>
<defs>
    <style>
      .cls-1 {
        fill: #fff7f2;
        fill-rule: evenodd;
      }
    </style>
  </defs>
  <path class="cls-1" d="M503,313c7.425-.254,13.161,1.668,15,7,3.363,5.3,1,34.192,1,43-0.006,38.854-2.982,78.262-10,112h2c5.286-4.728,15.168-7.083,23-9,5.592-1.369,9.4,1.176,12-3-4.785-4.92-11.717-30.869-9-43,6.282-28.047,9.02-48.743,36-56,2.585-.695,9.889-2.142,14-1,22.589,6.275,23.536,36.565,11,55-6.868,10.1-21.5,12.414-36,15a28.9,28.9,0,0,0-1,9c5.639,7.6,3.845,14.318,18,14,2.251-1.971,6.146-2.663,8-5,5.434-6.85,5.963-17.624,18-18,4.647,4.214,8.046,3.536,8,13-0.778,1.065-1.489,3.692-2,5h1l13-11a81.975,81.975,0,0,0,8-13q0.5-3,1-6c1.169-1.481,4.433-.907,7-1,5,3,12.617,1.41,19,3,18.144,4.52,37.778,4.343,57,9,60.775,14.724,127.182,16.451,188,31,21.234,5.079,42.924,5.2,63,10,7.759,1.856,23.016-.426,26,6,5.24,7.91-3.491,16.364-5,21-1.271,3.9-.334,9.94-1,13-5.963,3.4-15.025,3.575-23,1-9.081-2.932-19.413-7.3-29-10l-30-5c-13.3-2.917-21.209,6.608-34,3-9.29-2.62-11.542-13.347-21-16-9.12-2.558-29.489,2.338-37,4-19.373,4.286-40.112.925-59,5H732c-12.205,2.633-35.795,2.639-48,0l-30-1c-16.767-3.656-42.707-8.172-62-4l-30,1c-15.581,3.433-31.238,4-42,12l-9,14c-4.368,4.208-10.6,4.663-13,11-5.314,14.031,3.048,33.68,0,48-4.643,21.815-8.085,37.153-23,48-16.8,12.214-51.87,21.719-83,15-15.618-3.371-37.726-8.189-56-4-13.452,3.084-27.819,5.006-40,10-37.236,15.266-68.949,36.353-111,48-33.774,9.354-79.389,3.769-102-10-31.244-19.025-56.641-51.322-70-88-16.426-45.1-7.432-128,4-171l3-18c7.45-22.786,18.278-40.952,31-58,5.641-7.56,10.9-17.979,24-18,4.839,2.837,16.008.338,19,5-9.541,10.506-12.915,34.611-19,49-8.325,19.688-17.995,37.973-24,61-10.408,39.906,12.556,80.537,28,102,5.468,7.6,10.147,15.877,18,21,0.032-11.1,2.679-23.142,5-33q0.5-7.5,1-15c3.091-13.164,4.75-29.865,8-42,3.217-12.011-1.23-26.456,7-33,1.681-1.344,3.143-1.637,6-2,5.607,3.88,13.023,3.636,17,9,8.191,11.048,7.26,27.073,11,43,6.49,27.636,7.77,60.186,14,87h2v-1c5.444-6.432,4.434-19.895,7-29,9.012-31.983,10.168-70.7,19-104,3.178-11.982,1.214-36.973,12-41,9.491-7.008,24.063,5.294,27,12q1,6,2,12c11.437,44,4.231,106.409,20,146,5.417-2.633,17.772-9.876,22-14-9.578-9.871-11.971-48.021-8-66,1.656-7.5-1.621-18.634,4-22,2.81-2.242,7.715-2.136,13-2,11.312,17.584,2.886,47.706,8,72l3,1c7.861,4.126,10.927-8.457,13-14,3.423-9.151,7.335-29.9,4-44-0.918-3.88-4.253-8.5-3-14,1.025-4.5,4.15-8.069,6-12l8-1c4.5,4.73,9.831,6.7,12,14,7.544,25.382-8.936,54.323,13,67,3.8,2.2,2.8,4.469,9,5,5.3,3.423,18.076,4.506,25,5v-1c-8.57-7.347-8.514-26.658-12-39-4.957-17.551-7.447-38.27-12-57q-2-17-4-34c-3.238-13.714-6.713-37.289-4-52,1.766-.961,1.68-1.257,4-2,10.226-7.523,21.89,6.422,24,14v22c1.616,7.4.159,16.775,2,25,4.372,19.53,6.14,40.662,11,59,2.935,11.074,1.775,26,8,34v-1c7.561-8.489,5.769-36.311,9-50,7.29-30.886,5.782-67.12,13-98,2.86-12.237,1.925-23.98,6-34,2.667-.924,6.931-1.051,11-1,3.945,3.694,9.007,5.275,11,11,7.14,9.9,1.718,38.518,5,53,7.634,33.69,7.833,72.5,21,100h1v-1c10.2-7.169,4.777-27.687,8-42,5.122-22.751,6.484-54.949,7-80,0.435-21.141-2.2-46.644,4-62C498.8,315.221,501.532,314.226,503,313Zm58,99c6.529,0.247,12.154-.553,15-4,4.223-1.889,10.993-14.788,9-19-1.12-2.873-.174-1.842-3-3C570.843,378.763,561.387,403.147,561,412ZM437,430c0.5,32.033-5.624,66.7-13,93-1.989,7.092-1.335,12.638-4,19-2.071,4.943-6.189,8.84-9,13h10c3.257-2.041,8.267-1.421,12-3,10.843-4.588,23.326-17.423,27-29-9.607-8.11-17.354-47.676-21-64C437.017,450.123,441.363,436.858,437,430ZM214,456c0.087,14.757-3.033,29.864-6,43l-3,32c-7.113,28.607-9.136,49.007-21,72h13c8.905-5.243,32.319-3.4,34-15-4.644-7.5-1.777-20.309-4-30-5.1-22.224-3.955-48.637-9-71C215.8,477.234,218.9,463.391,214,456Zm-85,44c-0.887,27.95-8.376,57.276-9,87,7.366,4.1,15.654,7.475,24,11-6.756-19.485-6.106-44.976-11-67C130.76,520.922,134.36,506.925,129,500Zm195,42v5h2C325.615,544.023,325.475,543.6,324,542Z"/>
</svg>
