<svg xmlns="http://www.w3.org/2000/svg" width="500" height="500" viewBox="0 0 500 500">
  <defs>
    <style>
      .cls-1 {
        fill: #6bb382;
      }

      .cls-1, .cls-2, .cls-3 {
        fill-rule: evenodd;
      }

      .cls-2 {
        fill: #6ba684;
      }

      .cls-3 {
        fill: #fff7f2;
      }
    </style>
  </defs>
  <path id="We" class="cls-1" d="M278.551,243.577q1.565-.522,4.662-4.717a41.215,41.215,0,0,0,5.391-10.607q1.73-4.879,4.274-18.436t2.143-14.767a5.2,5.2,0,0,1,.082-2.381c0.215-1.1.362-1.8,0.444-2.1q0.646-2.9.847-3.913,0.688-6.01,1.264-19.045t0.379-17.674a5.6,5.6,0,0,0-1.1-2.322,4.877,4.877,0,0,0-1.424-1.272,3.718,3.718,0,0,0-2.73-.164,2.741,2.741,0,0,0-1.286.967q-1.486,1.573-1.752,5.425t-0.438,16.282q-2.154,27.479-4.942,43.737-1.05,5.73-2.178,10t-3.1,10.045a2.407,2.407,0,0,1-1.527,1.451,1.753,1.753,0,0,1-2.208-.607q-1.565-1.9-3.485-8.115a81.386,81.386,0,0,1-2.458-11.281q-0.978-6.395-2.011-16.4-0.4-4.437-1-9.08a74.575,74.575,0,0,1-.509-12.873q-0.359-3.108-.415-6.316T265.42,165.4a17.5,17.5,0,0,0-.078-2.865,5.958,5.958,0,0,0-.479-2.059,7.478,7.478,0,0,0-3.31-2.323,6.907,6.907,0,0,0-3.714.1q-0.724.645-1.429,3.57T254.7,170.6q-0.284,1.172-.525,2.259t-0.363,1.936l-1.09,6.415q-1.9,11.258-2.02,11.7-3.88,25.1-7.549,41.515a17.648,17.648,0,0,1-1.471,5.668q-1.109,2.321-2.151,2.4-0.522.042-2.2-8.476t-2.834-16.063q-3.952-22.884-2.933-38.015a13.3,13.3,0,0,0-.557-5.327,7.986,7.986,0,0,0-3.649-4.564,3.74,3.74,0,0,0-3.412-.608,2.709,2.709,0,0,0-1.708,1.713,5.806,5.806,0,0,0,.1,3.531l0.236,4.358q0.234,5.973.113,8.03l1.672,13.964q1.512,14.289,2.589,20.381,1,6.66,3.075,16.386t3.441,12.634a10.659,10.659,0,0,0,.319,1.776,6.343,6.343,0,0,0,2.807,3.231,5.147,5.147,0,0,0,4.095.246q3.011-1.005,5.064-4.918a45.87,45.87,0,0,0,3.543-9.923q0.966-3.549,1.612-5.244,3.993-18.276,4.885-26.911,0.282-1.572.445-3.308t0.445-3.308q0.444-3.912,1.031-7.4t1.148-3.812q0.361-.121.54,1.635t0.217,4.3q0.555,7.75,1.151,13a78.948,78.948,0,0,0,2.077,10.938q1.56,5.932,2.681,9.324,0.88,2.664,3.284,8.316a9.06,9.06,0,0,0,2,2.423,11.409,11.409,0,0,0,2.287,1.657,4.363,4.363,0,0,0,2.407,1.414,4.811,4.811,0,0,0,3.052-.279h0Zm57.684-31.093a26.271,26.271,0,0,0,3.337-5.081,12.064,12.064,0,0,0,1.43-4.377q0.1-1.713-.982-1.353a9.377,9.377,0,0,1-1.224-.465,1.815,1.815,0,0,0-1.265-.183,2.117,2.117,0,0,0-.723.443,2.883,2.883,0,0,0-.664,1.029q-0.3.706-.462,1.028-0.323.646-.724,1.452a5.408,5.408,0,0,1-1.006,1.412l-1.849,2.1a7.42,7.42,0,0,1-2.933,2.055,22.5,22.5,0,0,1-4.176.722q-4.3.763-6.338-5.414a19.157,19.157,0,0,1-.68-2.462,28.517,28.517,0,0,1-.737-5.67,1.909,1.909,0,0,1,1.146-2,6.055,6.055,0,0,1,1.807-.2,10.984,10.984,0,0,0,6.545-.437,16.393,16.393,0,0,0,4.7-2.377,26.689,26.689,0,0,0,5.83-8.669q2.013-4.839,1.534-7.908a10.148,10.148,0,0,0-5.334-6.018,6.524,6.524,0,0,0-3.01-1.213,14.915,14.915,0,0,0-4.377.318q-1,.2-1.887.361a12.816,12.816,0,0,0-1.727.442,7.122,7.122,0,0,0-3.094,2.378,24.224,24.224,0,0,0-5.85,7.8,38.011,38.011,0,0,0-3.584,10.811,25.22,25.22,0,0,0,.13,10.31q0.959,3.714,1.36,4.925a22.065,22.065,0,0,0,2.685,5.692,13.172,13.172,0,0,0,3.73,3.595,13.686,13.686,0,0,0,5.839,2.488,12.575,12.575,0,0,0,6.2-.458,11.15,11.15,0,0,0,6.349-5.078h0Zm-8.607-25.632a13.1,13.1,0,0,1-4.338,2.255q-4.1,1.368-5.06.479-0.482-.243.485-2.986a37.615,37.615,0,0,1,2.555-5.626,11.419,11.419,0,0,1,3.116-3.931,7.707,7.707,0,0,1,2.089-.967,4.6,4.6,0,0,1,3.332-.037,3.268,3.268,0,0,1,1.885,2.06q0.48,1.454-.908,4.337a13.487,13.487,0,0,1-3.156,4.416h0Z"/>
  <path id="Mu" class="cls-2" d="M220.128,277.369a6.854,6.854,0,0,0,4.194-.334,7.064,7.064,0,0,0,2.985-2.21,3.893,3.893,0,0,0,.943-3.1,12.911,12.911,0,0,0-1.573-3.518,4.819,4.819,0,0,0-2.915-1.673,13.926,13.926,0,0,1-8.761-8.4,30.186,30.186,0,0,1-1.44-7.238,84.434,84.434,0,0,1,.21-11.649q0.362-12.93-1.753-18.306-1.024-2.6-2.55-3.133c-0.541-.391-1.966-2.218-2.852-1.511,0.657-1-10.525,3.4-6.292,9.813,0.385,0.584.5,1.119,0.739,1.4A40.955,40.955,0,0,1,202.783,240q-0.4,14.265-3.922,22.044t-7.591,9.383a3.664,3.664,0,0,1-1.983.216q-2.21.122-3.557-3.3-2.308-5.862-1.984-23.669,1.232-11.205-.371-15.276a3.154,3.154,0,0,0-1.194-1.6,4.248,4.248,0,0,0-2.247-2.124,4.094,4.094,0,0,0-3.071.081,6.2,6.2,0,0,0-1.989,1.159q-0.936,4.319-2.1,16.627a94.41,94.41,0,0,0,.285,16.25,65.608,65.608,0,0,0,2.842,12.234,18.751,18.751,0,0,0,1.05,4.1,9.12,9.12,0,0,0,2.789,3.98,15.492,15.492,0,0,0,4.586,2.332q4.343,2.43,7.6,1.146,3.581-1.408,7.807-7.4a29.75,29.75,0,0,0,5.311-8.486,11.189,11.189,0,0,0,1.851-5.807q0.386,0.978,1.347,3.42a13.106,13.106,0,0,0,1.671,3.291q4.839,6.558,10.222,8.765h0Zm-62.779,23.482a1.012,1.012,0,0,1,.886-1.348,2.444,2.444,0,0,1,1.057-.123q0.718-.027.573-1.8a65.069,65.069,0,0,0-1.169-6.583l-0.61-4.013q-3.926-13.622-2.712-18.888-0.775-1.416-1.252-5.923t-0.553-5.395a72.6,72.6,0,0,0-.739-7.618q0.372-6.3.185-13.9t-0.534-12.595a174.93,174.93,0,0,0-.528-20.154,82.427,82.427,0,0,0-2.148-14.406,18.234,18.234,0,0,0-5.333-9.026q-3.638-3.14-6.832-2.22a5.43,5.43,0,0,0-2.808,2.266,21.411,21.411,0,0,0-2.415,5.522q-1.362,4.128-2.72,8.889l-2.385,8.154q-7.261,29.778-15.415,59.626-3.169,12.389-3.359,12.989a75.3,75.3,0,0,0-4.394,12.558q-0.786,4.235-1.515,5.171a1.733,1.733,0,0,1-2.15.438,6.575,6.575,0,0,1-1.063-2.425q-2.326-8.072-4.622-28.992a247.752,247.752,0,0,1-1.752-35.464,39.84,39.84,0,0,1-.636-4.734q-1.054-8.072-1.514-10.309a32.994,32.994,0,0,0-.95-5.19,10.409,10.409,0,0,0-1.317-2.99,9.713,9.713,0,0,0-1.856-2.015q-1.071-.873-1.553-1.282A6.338,6.338,0,0,0,82,197.721a11.081,11.081,0,0,0-3.4.525q-1.61.1-2.192,3.454a15.2,15.2,0,0,0,.437,6.886q0.534,1.852-1.237,5.82a56.977,56.977,0,0,0-3.595,9.96q-2.159,7.363-5.421,20.686l-2.334,9.6q-1.092,6.326-2.794,13.372t-3.062,11.81a98.189,98.189,0,0,1-3.072,12.723,12.188,12.188,0,0,1-.658,6.564q-1.294,1.833-3.55,13.59-0.757,4.956-1.075,7.959a12.547,12.547,0,0,0,.022,4.183,4.364,4.364,0,0,0,1.037,1.7q5.077,3.087,7.6,2.362a53.806,53.806,0,0,0,1.618-7.023q1.069-4.5,3.187-14.851T70.2,275.884a206.694,206.694,0,0,1,5.241-25.732q2.943-10.317,3.255-11.138c0.476-1.713.883-2.622,1.22-2.719s0.65,0.359.941,1.368a15.265,15.265,0,0,1,.51,2.4q-0.189,1.876,1.609,20.116,1.917,18.024,1.991,18.914a143.41,143.41,0,0,0,2.894,14.464,29.981,29.981,0,0,0,3.2,7.637,14.09,14.09,0,0,0,4.71,4.652q4.283,2.228,7.143,1.4a8.7,8.7,0,0,0,4.2-3.123,48.976,48.976,0,0,0,4.718-7.643,94.675,94.675,0,0,0,3.98-9.889q2.04-5.868,1.8-6.71,0.142-.767.774-3.32a47.414,47.414,0,0,1,1.443-4.786,45.178,45.178,0,0,0,3.291-11.33,103.691,103.691,0,0,1,2.357-10.15q0.593-2.355,3.045-13.444l2.14-10.269a69.31,69.31,0,0,0,2.117-9.716q1.76-7.79,2.479-9.093l2.411-7.433a2.626,2.626,0,0,1,.164-1.959,14.772,14.772,0,0,1,1.135-2.695c0.438-.792.707-1.024,0.8-0.687q0.243,2.115.78,9.974t0.556,16.777q1.854,32.978,5.462,65.083l1.819,6.943a17.2,17.2,0,0,0,3.381,6.675,5.085,5.085,0,0,0,2.383,1.316,4.435,4.435,0,0,0,2.211.091C157.148,301.637,157.477,301.3,157.349,300.851Z"/>
  <path id="muwe-logo" class="cls-3" d="M308,224a29.549,29.549,0,0,0,6.185-6.762c0.68-1.111,1.454-2.45,1.815-3.238a11.508,11.508,0,0,1,2-3c0.556-.729,2.167-0.651,3.249-0.477,26.139,4.2,34.395,6.083,71.751,11.477,19.422,2.8,36.713,5.05,58,9,30.221,5.608,32.661,5.624,46,8-0.028,1.722,1.649,1.44,1,4-1.063,4.189-2,2.7-2,4a4.775,4.775,0,0,0-2,3c-0.612,1.889-.073,4.907,0,7-1.752,1.7-3.846.526-7,1-5.44-3.071-5.185-.918-7-2-6.807-4.055-16.332-5.135-25-7-7.106-1.529-13.889,2.963-20,1-4.752-1.527-4.572-7.571-11-8-7.026-.469-30.15,3.764-40,5-7.333,0-16.423.633-24,1-5.621.886-16.32-1.054-22-1-17.732-1.734-26.479-4.322-42-3-10.741,2.387-20.262-.886-30,4-2.545,1.277-4.86,2.4-5.724,3.282-1.228,1.254-2.127,2.164-2.276,3.718-0.115,1.193-1.966,3.8-4,4-3.484.341-6.293,2.4-6,6,0.05,0.611,0-.018,0,0-0.131,6.147,0,12.017,0,18a31.316,31.316,0,0,1-5,22,32.913,32.913,0,0,1-12,10c-9.176,4.776-18.774,5.086-23,5-14.573-.3-26.2-3.669-39-3s-25.132,5.174-37,13a123.635,123.635,0,0,1-29,13c-24.011,7.2-45.467,4.88-53,2-11.889-4.545-24.436-13.921-36-33A83.312,83.312,0,0,1,4,287a111.963,111.963,0,0,1-2-20c-0.169-7.138.29-16.8,1-26,0.407-5.274.941-10.538,1.62-15.108Q5.583,219.407,7,213a83.369,83.369,0,0,1,28-47,9.708,9.708,0,0,1,7,0,9.539,9.539,0,0,1,4,3c-2.989,6.717-6.042,13.508-9,20-4.408,9.674-7.692,17.2-10,28-1.824,8.536-2.422,16.785-2,22,1.267,15.665,8.552,30.089,20,42,9.212,9.585,19.293,15.159,25,17,6.151,1.985,13.913,3.022,24,2a87.632,87.632,0,0,0,36-12c8.908-5.364,13.69-10.191,24-13a61.45,61.45,0,0,1,17-2c4.98,0.063,12.53,1.258,20,3,8.039,1.875,12.845,3.481,19,2,6.311-1.518,11.007-5.3,17-12,5.221-5.836,10.132-14.048,17-20a58.526,58.526,0,0,1,20-11C275.719,231.039,298.365,231.7,308,224Z"/>
</svg>
