<svg xmlns="http://www.w3.org/2000/svg" width="50" height="50" viewBox="0 0 500 500">
  <metadata><?xpacket begin="﻿" id="W5M0MpCehiHzreSzNTczkc9d"?>
<x:xmpmeta xmlns:x="adobe:ns:meta/" x:xmptk="Adobe XMP Core 5.6-c145 79.163499, 2018/08/13-16:40:22        ">
   <rdf:RDF xmlns:rdf="http://www.w3.org/1999/02/22-rdf-syntax-ns#">
      <rdf:Description rdf:about=""
            xmlns:xmp="http://ns.adobe.com/xap/1.0/">
         <xmp:CreatorTool>Adobe Photoshop CC 2019 (Windows)</xmp:CreatorTool>
      </rdf:Description>
   </rdf:RDF>
</x:xmpmeta>





















<?xpacket end="w"?></metadata>
  <path d="M228,112c105.237-2.156,174.433,32.422,226,84,10.21,10.212,42.32,40.738,44,56-3.11,2.436-3.684,5.7-6,9-6.427,9.147-14.151,17.914-21,27l-15,14a307.731,307.731,0,0,1-101,67c-17.188,7.109-37.745,10.184-57,15-14.408,3.6-56.4,7.147-71,2l-18-1-44-9a348.883,348.883,0,0,1-84-41c-8.706-5.81-15.771-14.783-24-21-17.159-12.963-30.525-29.288-43-47-4.117-5.845-11.011-10.07-12-19,3.928-3.041,5.1-7.866,8-12,5.467-7.794,12.145-15.227,18-23l15-14a310.673,310.673,0,0,1,78-57c20.944-10.9,44.557-17.262,70-24C198.564,116,224.108,116.126,228,112Zm14,36c-3.791,2.207-10.8-.191-16,1-13.242,3.033-27.375,2.9-40,7-28.553,9.264-56.592,19.374-79,35-12.621,8.8-23.085,20.774-35,30-8.732,6.762-22.385,18.768-26,30,12.153,8.49,19.029,24.953,31,34,21.647,16.361,43.885,35.566,71,46,20.663,7.951,41.82,12.4,65,18,16.3,3.935,50.133,3.695,66,0,10.695-2.49,19.066-1.182,29-4,18.976-5.383,37.691-11.289,55-19,19.7-8.775,35.753-23.8,52-36,11.4-8.565,34.287-27.177,39-41-4.264-3.247-6.747-8.682-10-13-4.158-5.52-18.476-19.841-24-24C373.185,176.757,324.38,148.614,242,148Zm3,32c50.866-.649,91.482,47.476,69,99-10.062,23.06-31.328,35.065-59,41-12.13,2.6-25.914-3.41-33-7-25.709-13.026-54.533-45.969-38-87a76.906,76.906,0,0,1,42-42Z"/>
</svg>
